<?xml version="1.0" encoding="UTF-8"?>
<svg id="Layer_1" data-name="Layer 1"
  xmlns="http://www.w3.org/2000/svg" viewBox="0 0 500 250">
  <defs>
    <style>
      .cls-1 {
        fill: currentColor;
        stroke-width: 0px;
      }
    </style>
  </defs>
  <path class="cls-1" d="M109.24,139.41c-2.86,17.19-13.82,30.83-36.9,30.83-25.78,0-38.08-16.34-38.08-44.82,0-26.62,14.32-44.99,39.26-44.99,26.62,0,34.88,18.87,35.55,31.68h-19.71c-1.18-8.59-5.39-16.17-16.17-16.17-13.31,0-18.7,11.79-18.7,28.81,0,20.89,6.74,30.16,18.37,30.16,10.62,0,14.32-6.74,16.68-15.5h19.71Z"/>
  <path class="cls-1" d="M143.78,37.3v175.4h-16.85V37.3h16.85Z"/>
  <path class="cls-1" d="M167.7,104.02c0-7.58,0-15-.17-22.58h23.08c.34,2.19.84,7.08,1.01,10.45,4.38-6.4,11.46-12.47,24.26-12.47s19.38,6.57,22.41,13.31c5.22-7.08,12.64-13.31,26.96-13.31,15.16,0,27.63,9.44,27.63,32.01v57.29h-23.59v-54.25c0-7.92-2.86-15.67-12.81-15.67s-14.15,6.74-14.15,20.05v49.87h-23.76v-53.41c0-8.93-2.19-16.34-12.47-16.34s-14.49,6.07-14.49,21.06v48.69h-23.93v-64.7Z"/>
  <path class="cls-1" d="M377.45,146.14c0,8.43.67,20.56,1.18,22.58h-23.08c-.67-1.69-1.18-6.4-1.18-8.59-3.2,4.89-9.1,10.62-24.6,10.62-21.06,0-29.82-13.82-29.82-27.3,0-19.88,15.84-29.15,41.45-29.15h12.47v-5.22c0-6.23-2.19-12.3-13.48-12.3-10.11,0-12.47,4.21-13.48,10.61h-22.91c1.18-15.5,10.78-27.97,37.4-27.97,23.25.17,36.06,9.27,36.06,30.16v36.56ZM353.86,128.96h-9.77c-14.66,0-20.05,4.55-20.05,12.97,0,6.23,3.88,11.63,12.64,11.63,15.33,0,17.19-10.78,17.19-22.24v-2.36Z"/>
  <path class="cls-1" d="M465.73,140.59c-2.86,14.49-13.14,30.16-39.09,30.16s-41.11-18.7-41.11-44.99,15.67-46.33,42.29-46.33c29.32,0,37.57,21.23,37.91,31h-23.42c-1.52-7.08-5.56-11.96-14.99-11.96-11.12,0-17.36,9.6-17.36,26.45,0,18.7,6.74,27.13,17.19,27.13,8.43,0,12.81-4.89,14.99-11.46h23.59Z"/>
</svg>