<?xml version="1.0" encoding="UTF-8"?>
<svg id="Layer_1" data-name="Layer 1" xmlns="http://www.w3.org/2000/svg" version="1.1" viewBox="0 0 400 120">
  <defs>
    <style>
      .cls-1 {
        fill: #000;
        fill-rule: evenodd;
        stroke-width: 0px;
      }
    </style>
  </defs>
  <polyline class="cls-1" points="35.7 57.5 23.5 68.3 23.5 47.2 35.7 57.5"/>
  <path class="cls-1" d="M212.4,59.7V2.3c0-1,.3-1.2,1.2-1.2h80.5c1,0,1.3.2,1.3,1.3v13.5c0,1-.3,1.1-1.2,1.1h-62.3c-1.5,0-1.4-.3-1.4,1.3v31.9c0,.9.4,1.4,1.3,1.4h38.2c1,0,1.3.3,1.3,1.3v13.3c0,.9-.5,1.4-1.5,1.4h-37.9c-1.8,0-1.6-.1-1.6,1.5v29.8c0,.9.2,1.2,1.2,1.2h62.4c1,0,1.4.1,1.4,1.3v15.3c0,1.2-.4,1.4-1.4,1.4l-10.6.2h-65.1c-1.7,0-3.5-.1-5.2-.2-.5,0-.7-.2-.7-.7,0-.3,0-.6,0-.8v-57h0ZM16.6,59.8v57.2c0,.9-.2,1.2-1.2,1.2-4.7,0-9.4,0-14.1,0-1,0-1.3-.2-1.3-1.2v-49.7S0,2.6,0,2.6c0-1,.2-1.3,1.3-1.3h14c1,0,1.3.2,1.3,1.3v57.1h0,0ZM347.5,67.5V18.2c0-1-.5-1.4-1.4-1.4-11.4,0-22.8,0-34.3,0-1,0-1.2-.3-1.2-1.2V1.9c0-.7.1-1,.9-1h86.9c.8,0,.9.2.9.9v13.9c0,.9-.3,1-1.1,1h-33.6c-.9,0-1.4.4-1.4,1.3v98.7c0,1.6.2,1.4-1.4,1.4-4.4,0-8.8,0-13.2,0-1,0-1.2-.2-1.2-1.2v-49.5h0,0ZM96.2,118.2h-7.9c-4.8,0-9.7,0-14.5,0-.8,0-1.3-.2-1.9-.7l-37.2-35.8-7.3-7c-.5-.5-.5-.7,0-1.2l11.2-9.8c.6-.6.9-.4,1.4,0l20.8,20.1,34.7,33.4c.3.3.6.5.9.7l-.2.3h0ZM92.3,59.8c0-27,16.7-49.9,41.7-57,21.3-6,40.5-1.6,57.3,13,.8.7.8,1.1,0,1.9l-9.7,11c-.6.6-.9.7-1.5.1-5-4.6-10.5-8.4-17.1-10.5-10.7-3.4-21.2-2.1-30.9,3.1-12.8,6.8-20.7,17.6-22.9,31.9-2.3,15.4,3.5,27.9,15.7,37.4,6.2,4.9,13.3,7.9,21.2,8.8,8.4,1,16.4-.6,24-4.3,3.4-1.7,6.7-3.7,9.7-6,.5-.4.9-.5,1.4,0l10,10.3c.5.5.5.7,0,1.2-8.9,8.8-19.4,14.5-31.9,16.3-30.4,4.4-59.1-15.4-65.7-45.2-.9-4.2-1.4-8.5-1.4-12.1h0ZM92.8,1.5l-8.5,8.2-44,42.4c-.6.6-1,.7-1.7,0l-11.3-9.4c-.7-.6-.6-.8,0-1.3L65.1,5.1l3.3-3.2c.3-.3.7-.5,1.2-.5h22.6c.1,0,.3,0,.6,0h0Z"/>
</svg>