<?xml version="1.0" encoding="UTF-8"?>
<svg id="Layer_1" data-name="Layer 1"
  xmlns="http://www.w3.org/2000/svg" viewBox="0 0 500 150">
  <defs>
    <style>
      .cls-1, .cls-2 {
        fill: currentColor;
        fill-rule: evenodd;
        stroke-width: 0px;
      }
    </style>
  </defs>
  <polyline class="cls-2" points="47.5 72.9 32.5 86.24 32.5 60.24 47.5 72.9"/>
  <path class="cls-1" d="M265.7,75.6l-.03-70.78c0-1.21.34-1.48,1.51-1.48h99.39c1.26,0,1.59.28,1.57,1.55v16.72c.02,1.21-.37,1.39-1.46,1.39l-76.86-.02c-1.85,0-1.67-.29-1.68,1.66v39.44q0,1.71,1.66,1.71l47.14-.03c1.28,0,1.59.34,1.57,1.59l-.03,16.45q0,1.73-1.8,1.73c-15.58,0-31.16,0-46.74,0-2.24,0-1.92-.15-1.92,1.85l-.03,36.82c0,1.17.32,1.44,1.46,1.43l76.99-.05c1.26,0,1.7.22,1.68,1.61v18.93c.03,1.43-.54,1.67-1.7,1.69l-13.09.26h-80.4c-2.14-.02-4.27-.18-6.41-.23-.61-.01-.89-.19-.82-.82.04-.34,0-.7,0-1.04v-70.38h0ZM23.95,75.74l.03,70.64c0,1.16-.25,1.53-1.48,1.52-5.8-.07-11.61-.07-17.42,0-1.23.01-1.59-.24-1.59-1.54l.03-61.37-.03-79.78c0-1.24.26-1.59,1.55-1.58h17.28c1.26,0,1.66.22,1.66,1.6l-.04,70.51h0ZM432.46,85.28V24.42q0-1.78-1.73-1.78c-14.1,0-28.2-.02-42.3.03-1.24,0-1.49-.37-1.48-1.53V4.3c0-.88.18-1.18,1.14-1.18h107.25c.93,0,1.16.26,1.16,1.16v17.1c.02,1.1-.37,1.27-1.34,1.27l-41.51-.02q-1.7,0-1.7,1.66v121.84c0,1.96.28,1.71-1.75,1.71-5.41.01-10.82-.03-16.24.03-1.18.01-1.52-.28-1.52-1.49l.03-61.12h0ZM122.27,147.87h-9.8c-5.98,0-11.96-.02-17.93.02-.95,0-1.62-.26-2.3-.92l-45.97-44.22-9.07-8.67c-.64-.6-.6-.91.04-1.47l13.87-12.14c.77-.68,1.15-.5,1.79.12l25.69,24.77,42.83,41.27c.34.32.71.6,1.07.91l-.21.34h0ZM117.39,75.76c.02-33.34,20.65-61.62,51.52-70.32,26.25-7.39,49.99-1.97,70.68,16,1.04.91.93,1.41.08,2.35l-12.03,13.61c-.69.8-1.05.9-1.87.13-6.15-5.72-13-10.38-21.09-12.96-13.27-4.23-26.12-2.6-38.19,3.82-15.79,8.39-25.54,21.67-28.21,39.32-2.88,19.04,4.29,34.42,19.33,46.21,7.7,6.04,16.47,9.73,26.21,10.88,10.41,1.22,20.28-.75,29.68-5.31,4.25-2.06,8.24-4.53,11.99-7.39.67-.51,1.05-.57,1.69.09l12.39,12.67c.57.58.66.9.03,1.53-11,10.9-23.99,17.93-39.42,20.15-37.51,5.39-73.01-19.05-81.1-55.82-1.15-5.24-1.78-10.54-1.69-14.97h0ZM118.06,3.74l-10.54,10.15-54.31,52.36c-.78.76-1.2.82-2.06.09l-13.99-11.59c-.85-.68-.7-.96-.03-1.61L83.8,8.29l4.13-4c.43-.42.85-.65,1.48-.64l27.89.02c.16,0,.33.03.76.07h0Z"/>
</svg>