<?xml version="1.0" encoding="UTF-8"?>
<svg id="Layer_1" data-name="Layer 1"
  xmlns="http://www.w3.org/2000/svg" version="1.1" viewBox="0 0 400 160">
  <defs>
    <style>
      .cls-1 {
        fill: currentColor;
        stroke-width: 0px;
      }
    </style>
  </defs>
  <path class="cls-1" d="M254.2,113.5c-.8-.8-1.8-1.5-3-2-1.2-.5-2.4-.7-3.7-.7s-2.5.2-3.7.7c-1.2.5-2.2,1.1-3,2s-1.5,1.8-2,2.9c-.5,1.1-.8,2.3-.8,3.5s.2,2.6.7,3.7c.5,1.1,1.2,2.1,2,3,.8.8,1.8,1.5,3,2,1.2.5,2.4.7,3.8.7s2.5-.2,3.7-.7c1.2-.5,2.2-1.1,3-2,.8-.8,1.5-1.8,2-3s.8-2.3.8-3.6-.3-2.5-.8-3.6c-.5-1.1-1.2-2.1-2-3h0Z"/>
  <path class="cls-1" d="M303.4,113.5c-.8-.8-1.8-1.5-3-2-1.2-.5-2.4-.7-3.7-.7s-2.6.2-3.8.7-2.2,1.1-3,2-1.5,1.8-2,2.9c-.5,1.1-.7,2.3-.7,3.5s.2,2.6.7,3.7c.5,1.1,1.2,2.1,2,3,.8.8,1.8,1.5,3,2,1.2.5,2.4.7,3.8.7s2.5-.2,3.7-.7c1.2-.5,2.2-1.1,3-2,.8-.8,1.5-1.8,2-3s.8-2.3.8-3.6-.3-2.5-.8-3.6c-.5-1.1-1.2-2.1-2-3Z"/>
  <path class="cls-1" d="M384.7,96.3c0,.2-.2.4-.4.7,4.1,1.2,1.6,0,.4-.7Z"/>
  <path class="cls-1" d="M384.4,95.8c-.3,0,0,.2.3.5.1-.3,0-.5-.3-.5Z"/>
  <path class="cls-1" d="M360.7,86.4c-1.5-2-2,2-3.5-5.4s-.5-6.9-4-13.9c-3.5-6.9-7.4-7.4-4.9-11.4,2.5-4,5.4-6.4,4.5-9.9-1-3.5,1-4.9-4-7.9s-9.4-7.4-9.4-7.4c0,0,4-4.5-1.5-4.5s-6.4-1-9.9,2.5,5.4,4-7.4,4.5c-12.9.5-10.9,3-16.3.5-5.4-2.5,2,2-7.9-2.5s-10.9-8.9-15.4-8.4-6.9,0-6.9,0c0,0-1-1.9-4-5.4s-3.5-7.9-10.4-9.9c-6.9-2-11.4-10.4-13.9-4-2.5,6.4-6.9,12.4-6.4,14.4.5,2,1,.5,1,4.5s4.5,5.9-3.5,6.9c-7.9,1-6.9,1.5-14.4.5-7.4-1-4.9-5.4-7.4-1s-4,14.9-4,14.9c0,0-.5,4-4,7.4s-1.7,4.5-7.3,8.4-5.1.5-6.1,7.4c-.3,2-.4,3.5-.5,4.7v43l15.5-14.7h20.2l-20.9,18.9,22.1,22h-20.7l-16.2-16.6v16.6h-14.7v-74.3c-.3-.6-.8-.9-1.6-.9-3,0-2-4-6.4,0s-3.5,10.4-7.4,12.9-6.9,3.8-9.4,2.4c-2.5-1.4-4-4.4-7.4-2.9s-5.9-.7-7.4,2.9-7.4,2.6-7.4,2.6c0,0-7.4-5.4-9.9-7.4s-4-5.4-10.4-4c-6.4,1.5-8.4,2.5-11.9,4.9-3.5,2.5-8.4.8-10.9,3.9-2.5,3.1-4-.9-3.5,5.5s1,5.4,3.5,9.4c2.5,4,.5,6.9-4.5,7.9-4.9,1-7.9-1-10.4,1.5s-3.5,1.5-3.5,6.4,2,7.4,0,9.9,3.5,5.9-4,4c-7.4-2-12.9-6.9-14.9-6.9s-4.9-1-8.4,2-7.9,4-6.4,8.9c1.5,4.9,2-2.4,3.5,8.5,1.5,10.9.6,14.6-6.4,15.8-8.5,1.5-11.4-4-11.9,0s3.5,5.9,5.9,6.4c2.5.5,62.9,0,62.9,0,0,0-5.4-6.1,0-8.7s3-4.1,5.4-2.7,2.5,2,4.5,2.5,206,1.3,206,1.3c0,0,3-.5,8.4-4.3s3.5-1.4,10.9-4.4c7.4-3,3,2,7.4-3,4.5-4.9,3.5-6.9,6.9-10.9,3.5-4-1-4.9,7.9-7.4,8.9-2.5,5.4,3,11.9-4.9,6.4-7.9,11.4-9.4,11.4-9.4,0,0,0,2,5.9-3.5,3.7-3.4,6.3-5.8,7.3-7.2-.9-.3-2.2-.7-3.8-1.2-11.9-4-18.3-7.4-19.8-9.4h0ZM271.4,140.5h-14.8v-4.5c-3.1,3.9-7.4,5.8-12.8,5.8s-5.8-.6-8.4-1.7c-2.5-1.1-4.8-2.7-6.7-4.6-1.9-2-3.4-4.3-4.4-6.9s-1.6-5.5-1.6-8.6.5-5.7,1.5-8.3,2.4-4.9,4.3-6.9c1.8-2,4.1-3.5,6.6-4.7,2.6-1.1,5.4-1.7,8.5-1.7,5.2,0,9.5,1.8,12.9,5.3v-29.3h14.8v66.1h0ZM320.6,140.5h-14.8v-4.5c-3.1,3.9-7.4,5.8-12.8,5.8s-5.8-.5-8.4-1.6c-2.5-1.1-4.8-2.6-6.7-4.6-1.9-2-3.4-4.3-4.4-6.9s-1.6-5.6-1.6-8.7.5-5.7,1.5-8.3c1-2.6,2.5-4.9,4.3-6.9,1.8-2,4-3.5,6.6-4.7,2.5-1.1,5.4-1.7,8.5-1.7,5.2,0,9.5,1.8,12.9,5.3v-4.1h14.8v40.9h0Z"/>
</svg>