<?xml version="1.0" encoding="UTF-8"?>
<svg id="Layer_1" data-name="Layer 1"
  xmlns="http://www.w3.org/2000/svg" viewBox="0 0 460 250">
  <defs>
    <style>
      .cls-1 {
        fill: currentColor;
        stroke-width: 0px;
      }
    </style>
  </defs>
  <g>
    <path class="cls-1" d="M275.06,143.75c-.94-.94-2.05-1.68-3.35-2.21-1.3-.53-2.67-.8-4.11-.8s-2.82.27-4.11.8c-1.3.53-2.41,1.27-3.35,2.21-.94.94-1.69,2.02-2.26,3.23-.57,1.21-.86,2.52-.86,3.94s.27,2.85.81,4.12c.54,1.27,1.28,2.38,2.22,3.32.93.94,2.05,1.68,3.35,2.21,1.3.53,2.7.8,4.21.8s2.82-.27,4.11-.8c1.3-.53,2.41-1.27,3.35-2.21.93-.94,1.69-2.04,2.26-3.28.57-1.24.86-2.57.86-3.98s-.29-2.76-.86-4.03c-.57-1.27-1.33-2.38-2.26-3.32Z"/>
    <path class="cls-1" d="M329.75,143.75c-.94-.94-2.05-1.68-3.35-2.21-1.3-.53-2.67-.8-4.11-.8s-2.91.27-4.21.8c-1.3.53-2.41,1.27-3.35,2.21-.94.94-1.67,2.02-2.22,3.23-.54,1.21-.81,2.52-.81,3.94s.27,2.85.81,4.12c.54,1.27,1.28,2.38,2.22,3.32.93.94,2.05,1.68,3.35,2.21,1.3.53,2.7.8,4.21.8s2.82-.27,4.11-.8c1.3-.53,2.41-1.27,3.35-2.21.93-.94,1.69-2.04,2.26-3.28.57-1.24.86-2.57.86-3.98s-.29-2.76-.86-4.03c-.57-1.27-1.33-2.38-2.26-3.32Z"/>
    <path class="cls-1" d="M420.09,124.59c-.08.21-.24.48-.5.82,4.56,1.37,1.78.01.5-.82Z"/>
    <path class="cls-1" d="M419.74,124.05c-.38,0-.11.24.36.54.14-.36.03-.54-.36-.54Z"/>
    <path class="cls-1" d="M393.33,113.59c-1.65-2.2-2.2,2.2-3.85-6.05-1.65-8.25-.55-7.7-4.4-15.41-3.85-7.7-8.25-8.25-5.5-12.66,2.75-4.4,6.05-7.15,4.95-11-1.1-3.85,1.1-5.5-4.4-8.8-5.5-3.3-10.45-8.25-10.45-8.25,0,0,4.4-4.95-1.65-4.95s-7.15-1.1-11,2.75,6.05,4.4-8.25,4.95-12.11,3.3-18.16.55c-6.05-2.75,2.2,2.2-8.8-2.75-11-4.95-12.11-9.9-17.06-9.35s-7.7-.04-7.7-.04c0,0-1.1-2.16-4.4-6.01s-3.85-8.8-11.56-11c-7.7-2.2-12.66-11.56-15.41-4.4-2.75,7.15-7.7,13.76-7.15,15.96.55,2.2,1.1.55,1.1,4.95s4.95,6.6-3.85,7.7c-8.8,1.1-7.7,1.65-15.96.55-8.25-1.1-5.5-6.05-8.25-1.1-2.75,4.95-4.4,16.51-4.4,16.51,0,0-.55,4.4-4.4,8.25s-1.9,4.95-8.1,9.35-5.65.55-6.75,8.25c-.31,2.18-.45,3.86-.55,5.2v47.75l17.18-16.38h22.43l-23.24,20.98,24.6,24.43h-22.97l-18-18.5v18.5h-16.37v-82.59c-.38-.63-.93-1.04-1.79-1.04-3.3,0-2.2-4.4-7.15,0-4.95,4.4-3.85,11.56-8.25,14.31-4.4,2.75-7.7,4.2-10.45,2.65-2.75-1.55-4.4-4.85-8.25-3.2-3.85,1.65-6.6-.75-8.25,3.2-1.65,3.95-8.25,2.85-8.25,2.85,0,0-8.25-6.05-11-8.25-2.75-2.2-4.4-6.05-11.56-4.4-7.15,1.65-9.35,2.75-13.21,5.5-3.85,2.75-9.35.9-12.11,4.3-2.75,3.4-4.4-1-3.85,6.15s1.1,6.05,3.85,10.45c2.75,4.4.55,7.7-4.95,8.8-5.5,1.1-8.8-1.1-11.56,1.65s-3.85,1.65-3.85,7.15,2.2,8.25,0,11c-2.2,2.75,3.85,6.6-4.4,4.4-8.25-2.2-14.31-7.7-16.51-7.7s-5.5-1.1-9.35,2.2-8.8,4.4-7.15,9.9c1.65,5.5,2.2-2.65,3.85,9.4,1.65,12.06.65,16.22-7.15,17.56-9.47,1.63-12.66-4.4-13.21,0s3.85,6.6,6.6,7.15c2.75.55,69.88,0,69.88,0,0,0-6.05-6.73,0-9.69,6.05-2.96,3.3-4.61,6.05-2.96,2.75,1.65,2.75,2.2,4.95,2.75,2.2.55,228.9,1.42,228.9,1.42,0,0,3.3-.53,9.35-4.82s3.85-1.55,12.11-4.85c8.25-3.3,3.3,2.2,8.25-3.3,4.95-5.5,3.85-7.7,7.7-12.11,3.85-4.4-1.1-5.5,8.8-8.25,9.9-2.75,6.05,3.3,13.21-5.5,7.15-8.8,12.66-10.45,12.66-10.45,0,0,0,2.2,6.6-3.85,4.12-3.78,6.96-6.49,8.11-7.99-1.02-.31-2.4-.75-4.25-1.37-13.21-4.4-20.36-8.25-22.01-10.45ZM294.09,173.75h-16.46v-5.05c-3.5,4.31-8.23,6.46-14.2,6.46-3.38,0-6.48-.62-9.31-1.86-2.83-1.24-5.31-2.95-7.42-5.13-2.11-2.18-3.75-4.75-4.93-7.7-1.18-2.95-1.76-6.14-1.76-9.56,0-3.25.56-6.33,1.67-9.25,1.11-2.92,2.7-5.47,4.75-7.66,2.05-2.18,4.51-3.91,7.37-5.18,2.86-1.27,6.01-1.9,9.45-1.9,5.79,0,10.58,1.98,14.38,5.93v-32.58h16.46v73.47ZM348.79,173.75h-16.46v-5.05c-3.5,4.31-8.23,6.46-14.2,6.46-3.38,0-6.48-.61-9.31-1.81-2.83-1.21-5.31-2.91-7.42-5.09-2.11-2.18-3.75-4.75-4.93-7.7-1.18-2.95-1.76-6.17-1.76-9.65,0-3.25.57-6.33,1.72-9.25,1.14-2.92,2.74-5.47,4.79-7.66,2.05-2.18,4.49-3.91,7.33-5.18,2.83-1.27,5.97-1.9,9.41-1.9,5.79,0,10.58,1.98,14.38,5.93v-4.51h16.46v45.41Z"/>
  </g>
  <g>
    <path class="cls-1" d="M106.75,198.45l4.67-6.08h4.73l-5.84,6.98,6.39,7.76h-4.96l-4.98-6.39v6.39h-3.83v-14.73h3.83v6.08Z"/>
    <path class="cls-1" d="M125.81,195.62h-4.55v2.46h4.3v3.24h-4.3v2.54h4.55v3.24h-8.38v-14.73h8.38v3.24Z"/>
    <path class="cls-1" d="M127.58,207.1v-14.73h3.83l7.07,9.01v-9.01h3.81v14.73h-3.81l-7.07-9.01v9.01h-3.83Z"/>
    <path class="cls-1" d="M149.99,195.62v11.49h-3.83v-11.49h-3.15v-3.24h10.12v3.24h-3.15Z"/>
    <path class="cls-1" d="M157.69,192.37v8.01c0,.43.02.87.05,1.32.03.45.13.86.29,1.22.16.36.42.66.77.89.35.23.85.34,1.49.34s1.13-.11,1.47-.34c.35-.23.6-.52.77-.89.17-.36.27-.77.3-1.22.03-.45.05-.89.05-1.32v-8.01h3.81v8.54c0,2.29-.52,3.97-1.57,5.02-1.05,1.06-2.66,1.58-4.84,1.58s-3.79-.53-4.85-1.58-1.58-2.73-1.58-5.02v-8.54h3.83Z"/>
    <path class="cls-1" d="M179.42,197.3c-.89-1.08-1.98-1.62-3.28-1.62-.57,0-1.1.1-1.59.31-.49.21-.91.49-1.26.85-.35.36-.63.78-.83,1.28-.2.49-.3,1.03-.3,1.6s.1,1.13.3,1.62c.2.5.48.93.84,1.29.36.36.78.65,1.26.86.48.21,1,.31,1.56.31,1.23,0,2.33-.52,3.3-1.56v4.53l-.39.14c-.59.21-1.13.36-1.64.46-.51.1-1.01.15-1.5.15-1.02,0-1.99-.19-2.92-.58s-1.75-.93-2.46-1.62-1.28-1.52-1.71-2.48c-.43-.96-.64-2-.64-3.14s.21-2.17.63-3.12.99-1.76,1.7-2.44c.71-.69,1.53-1.22,2.47-1.6.94-.38,1.92-.58,2.95-.58.59,0,1.16.06,1.73.19s1.16.32,1.79.58v4.57Z"/>
    <path class="cls-1" d="M185.32,198.45l4.67-6.08h4.73l-5.84,6.98,6.39,7.76h-4.96l-4.98-6.39v6.39h-3.83v-14.73h3.83v6.08Z"/>
    <path class="cls-1" d="M199.55,200.03l-5.37-7.66h4.57l2.74,4.02,2.72-4.02h4.57l-5.39,7.66v7.07h-3.83v-7.07Z"/>
    <path class="cls-1" d="M214.81,192.37h5.67c1,0,1.94.2,2.82.6.88.4,1.65.94,2.31,1.61.66.67,1.18,1.45,1.55,2.35.38.89.57,1.83.57,2.8s-.19,1.89-.56,2.78c-.37.89-.89,1.68-1.54,2.35-.66.68-1.43,1.22-2.31,1.62-.88.4-1.83.6-2.84.6h-5.67v-14.73ZM218.64,203.86h.88c.66,0,1.26-.1,1.78-.31.52-.21.96-.49,1.32-.86.36-.36.63-.8.82-1.3s.28-1.05.28-1.65-.1-1.13-.29-1.64c-.2-.51-.47-.94-.83-1.31-.36-.36-.8-.65-1.32-.86s-1.11-.31-1.76-.31h-.88v8.25Z"/>
    <path class="cls-1" d="M237.57,195.62h-4.55v2.46h4.3v3.24h-4.3v2.54h4.55v3.24h-8.38v-14.73h8.38v3.24Z"/>
    <path class="cls-1" d="M238.68,207.1l2.5-14.73h3.79l2.95,7.86,2.93-7.86h3.79l2.5,14.73h-3.81l-1.27-8.48-3.48,8.48h-1.52l-3.3-8.48-1.27,8.48h-3.81Z"/>
    <path class="cls-1" d="M257.93,199.74c0-1.1.2-2.11.6-3.06.4-.94.96-1.77,1.68-2.47.72-.7,1.57-1.25,2.57-1.65,1-.4,2.09-.6,3.29-.6s2.28.2,3.28.6c1,.4,1.87.95,2.59,1.65.72.7,1.29,1.53,1.69,2.47.4.94.6,1.96.6,3.06s-.2,2.11-.6,3.06c-.4.94-.97,1.77-1.69,2.47-.72.7-1.59,1.26-2.59,1.65-1,.4-2.1.6-3.28.6s-2.3-.2-3.29-.6c-1-.4-1.85-.95-2.57-1.65-.72-.7-1.28-1.53-1.68-2.47-.4-.94-.6-1.96-.6-3.06ZM261.93,199.74c0,.59.11,1.13.33,1.62.22.5.52.93.9,1.29s.82.65,1.32.85c.5.2,1.03.3,1.59.3s1.09-.1,1.59-.3c.5-.2.94-.49,1.33-.85.38-.36.69-.79.91-1.29.22-.49.33-1.03.33-1.62s-.11-1.13-.33-1.62c-.22-.5-.52-.93-.91-1.29-.38-.36-.83-.65-1.33-.85-.5-.2-1.03-.3-1.59-.3s-1.09.1-1.59.3c-.5.2-.94.49-1.32.85s-.68.79-.9,1.29c-.22.49-.33,1.03-.33,1.62Z"/>
    <path class="cls-1" d="M286.3,197.3c-.89-1.08-1.98-1.62-3.28-1.62-.57,0-1.1.1-1.59.31-.49.21-.91.49-1.26.85-.35.36-.63.78-.83,1.28-.2.49-.3,1.03-.3,1.6s.1,1.13.3,1.62c.2.5.48.93.84,1.29.36.36.78.65,1.26.86.48.21,1,.31,1.56.31,1.23,0,2.33-.52,3.3-1.56v4.53l-.39.14c-.59.21-1.13.36-1.64.46-.51.1-1.01.15-1.5.15-1.02,0-1.99-.19-2.92-.58s-1.75-.93-2.46-1.62-1.28-1.52-1.71-2.48c-.43-.96-.64-2-.64-3.14s.21-2.17.63-3.12.99-1.76,1.7-2.44c.71-.69,1.53-1.22,2.47-1.6.94-.38,1.92-.58,2.95-.58.59,0,1.16.06,1.73.19s1.16.32,1.79.58v4.57Z"/>
    <path class="cls-1" d="M300,207.1h-4.77l-3.65-5.67v5.67h-3.83v-14.73h5.96c.82,0,1.54.12,2.15.36.61.24,1.12.57,1.51.99.4.42.7.9.9,1.44.2.55.3,1.13.3,1.76,0,1.12-.27,2.03-.81,2.72-.54.7-1.34,1.17-2.39,1.42l4.63,6.04ZM291.58,198.96h.72c.75,0,1.33-.16,1.74-.47.4-.31.61-.76.61-1.35s-.2-1.04-.61-1.35c-.4-.31-.98-.47-1.74-.47h-.72v3.64Z"/>
    <path class="cls-1" d="M309.65,204.55h-5.47l-.88,2.56h-4.08l5.61-14.73h4.18l5.61,14.73h-4.08l-.88-2.56ZM308.63,201.63l-1.72-4.9-1.72,4.9h3.44Z"/>
    <path class="cls-1" d="M320.26,195.62v11.49h-3.83v-11.49h-3.15v-3.24h10.12v3.24h-3.15Z"/>
    <path class="cls-1" d="M327.96,192.37v14.73h-3.83v-14.73h3.83Z"/>
    <path class="cls-1" d="M340.68,197.3c-.89-1.08-1.98-1.62-3.28-1.62-.57,0-1.1.1-1.59.31-.49.21-.91.49-1.26.85-.35.36-.63.78-.83,1.28-.2.49-.3,1.03-.3,1.6s.1,1.13.3,1.62c.2.5.48.93.84,1.29.36.36.78.65,1.26.86.48.21,1,.31,1.56.31,1.23,0,2.33-.52,3.3-1.56v4.53l-.39.14c-.59.21-1.13.36-1.64.46-.51.1-1.01.15-1.5.15-1.02,0-1.99-.19-2.92-.58s-1.75-.93-2.46-1.62-1.28-1.52-1.71-2.48c-.43-.96-.64-2-.64-3.14s.21-2.17.63-3.12.99-1.76,1.7-2.44c.71-.69,1.53-1.22,2.47-1.6.94-.38,1.92-.58,2.95-.58.59,0,1.16.06,1.73.19s1.16.32,1.79.58v4.57Z"/>
    <path class="cls-1" d="M356.82,204.55h-5.47l-.88,2.56h-4.08l5.61-14.73h4.18l5.61,14.73h-4.08l-.88-2.56ZM355.8,201.63l-1.72-4.9-1.72,4.9h3.44Z"/>
    <path class="cls-1" d="M365.9,192.37v8.01c0,.43.02.87.05,1.32.03.45.13.86.29,1.22.16.36.42.66.77.89.35.23.85.34,1.49.34s1.13-.11,1.47-.34c.35-.23.6-.52.77-.89.17-.36.27-.77.3-1.22.03-.45.05-.89.05-1.32v-8.01h3.81v8.54c0,2.29-.52,3.97-1.57,5.02-1.05,1.06-2.66,1.58-4.84,1.58s-3.79-.53-4.85-1.58-1.58-2.73-1.58-5.02v-8.54h3.83Z"/>
    <path class="cls-1" d="M381.24,199.25l-4.59-6.88h4.73l1.99,3.81,2.46-3.81h4.73l-4.87,6.88,5.49,7.85h-4.67l-2.95-4.81-3.46,4.81h-4.63l5.76-7.85Z"/>
    <path class="cls-1" d="M395.58,192.37v14.73h-3.83v-14.73h3.83Z"/>
    <path class="cls-1" d="M401.52,192.37v11.49h4.59v3.24h-8.42v-14.73h3.83Z"/>
    <path class="cls-1" d="M410.94,192.37v14.73h-3.83v-14.73h3.83Z"/>
    <path class="cls-1" d="M422.08,204.55h-5.47l-.88,2.56h-4.08l5.61-14.73h4.18l5.61,14.73h-4.08l-.88-2.56ZM421.06,201.63l-1.72-4.9-1.72,4.9h3.44Z"/>
    <path class="cls-1" d="M440,207.1h-4.77l-3.65-5.67v5.67h-3.83v-14.73h5.96c.82,0,1.54.12,2.15.36.61.24,1.12.57,1.51.99.4.42.7.9.9,1.44.2.55.3,1.13.3,1.76,0,1.12-.27,2.03-.81,2.72-.54.7-1.34,1.17-2.39,1.42l4.63,6.04ZM431.58,198.96h.72c.76,0,1.34-.16,1.74-.47.4-.31.61-.76.61-1.35s-.2-1.04-.61-1.35c-.4-.31-.98-.47-1.74-.47h-.72v3.64Z"/>
    <path class="cls-1" d="M443.47,200.03l-5.37-7.66h4.57l2.73,4.02,2.72-4.02h4.57l-5.39,7.66v7.07h-3.83v-7.07Z"/>
  </g>
</svg>