<?xml version="1.0" encoding="UTF-8"?>
<svg id="kyDemocrats-compact"
  xmlns="http://www.w3.org/2000/svg" version="1.1" viewBox="0 0 360 165">
  <defs>
    <style>
      .cls-1 {
        fill: currentColor;
      }

      .cls-1, .cls-2 {
        stroke-width: 0px;
      }

      .cls-2 {
        fill: currentColor;
        opacity: 0.5;
      }
    </style>
  </defs>
  <path class="cls-1" d="M50.9,99.9l-17.2-39.2-9.4,14.8v24.4H5V5.1h19.2v46.3L50.3,5.1h21l-23.8,40.3c1.8,4.1,4.3,9.4,7.1,15.5,2.7,6.3,5.4,12.2,8.1,17.9,2.6,5.8,4.9,10.7,6.7,14.8,1.8,4.1,2.8,6.3,2.8,6.3h-21.4Z"/>
  <path class="cls-1" d="M77.2,5.1h20.7l16.5,40.3,16.7-40.3h19.8l-27.3,58.7v36.2h-19.2v-36.2L77.2,5.1Z"/>
  <path class="cls-1" d="M5,111.5h14.5c9.7,0,15.3,5.6,15.3,15.1v17.3c0,9.5-5.5,15-15.3,15H5v-47.4ZM14.1,119.2v32.1h5c4.5,0,6.4-2.9,6.4-7.2v-17.7c0-4.3-2-7.2-6.5-7.2h-4.9Z"/>
  <path class="cls-1" d="M46.3,111.5h24.9v8.2h-16v11.1h12.5v8h-12.5v11.9h16.1v8.3h-25s0-47.4,0-47.4Z"/>
  <path class="cls-1" d="M81.9,111.5h12.6l7.8,33h.2l7.6-33h12.6v47.4h-8.2v-36h-.2l-8.6,36h-7.3l-8.6-36h-.2v36h-7.8v-47.4h0Z"/>
  <path class="cls-1" d="M165,126.7v17.1c0,10.5-6.2,16.2-15.4,16.2s-15.4-5.7-15.4-16.2v-17.1c0-10.5,6.2-16.2,15.4-16.2,9.2,0,15.4,5.7,15.4,16.2ZM143.4,126.4v17.7c0,5.1,2.2,7.9,6.1,7.9s6.1-2.8,6.1-7.9v-17.7c0-5.1-2.2-7.9-6.1-7.9s-6.1,2.8-6.1,7.9Z"/>
  <path class="cls-1" d="M205.4,125.3v3.2h-8.7v-2.7c0-5.1-2.3-7.3-5.8-7.3s-6,2.8-6,7.6v18.1c0,4.9,2.5,7.7,6,7.7s5.8-2.2,5.8-7.3v-2.7h8.7v3.2c0,9.6-5.2,14.8-14.6,14.8s-15.1-5.9-15.1-15.9v-17.5c0-10.1,6.1-15.9,15.4-15.9,9.4,0,14.3,4.9,14.3,14.8Z"/>
  <path class="cls-1" d="M225.7,141.1v17.8h-9.1v-47.4h15.2c8.3,0,13,4.8,13,12.2v5.2c0,5.1-2.4,9-6.4,10.9l7.6,19.1h-9.5l-7-17.8h-3.8ZM225.7,118.8v14.9h4.3c4,0,5.7-2.1,5.7-5.5v-3.9c0-3.5-1.7-5.6-5.7-5.6h-4.3Z"/>
  <path class="cls-1" d="M277,158.9l-2-9.2h-11.8l-2,9.2h-8.6l11.4-47.7h10.7l11.3,47.7h-9ZM269,122.7l-4.2,19.6h8.5l-4.2-19.6s-.1,0-.1,0Z"/>
  <path class="cls-1" d="M289.6,111.5h28.9v8.4h-9.8v39h-9.1v-39h-9.9v-8.4Z"/>
  <path class="cls-1" d="M354.6,123.8v2.6h-8.6v-2.3c0-3.4-1.4-5.8-5.5-5.8s-5.3,2-5.3,5.2.6,3.3,1.9,4.3c1.3,1.1,3.6,2.4,7,4.1,3.9,1.9,6.6,3.9,8.3,6,1.6,2.1,2.5,5,2.5,8.6,0,8.3-5.4,13.2-14.7,13.2s-14.5-5.3-14.5-13v-3.4h8.6v2.5c0,4.1,1.9,6.3,6,6.3s5.6-1.9,5.6-5.2-1.5-5.3-9.2-8.9c-3.5-1.6-6-3.6-7.8-5.6-1.8-2.1-2.7-5-2.7-8.9,0-7.4,4.9-12.9,14.2-12.9,9.9,0,14,5.4,14,13.1Z"/>
  <path class="cls-2" d="M354.1,59.9c-.4-.8-1.3-1.2-2.2-1.1-.3,0-.5,0-.8.2-.2,0-.5,0-.6,0,0,0,0,0-.1,0-.4-.3-.8-.4-1.2-.4-.5-.8-1.1-1.4-1.6-1.8h0c0,0,0-.1-.1-.1-.8-.8-1.7-1.2-2.4-1.5-.2-.1-.5-.2-.6-.3,0-.4,0-.8,0-1.3,0-.7-.3-1.4-.9-1.8-.3-.2-.6-.4-.9-.6-.3-.3-.6-.7-.9-1-.2-.2-.5-.5-.6-.6-1.2-1.5-1.5-2.2-1.5-2.5.3-.5.4-1.2.2-1.8-.2-.7-.8-1.2-1.5-1.3-.1-.1-.3-.5-.4-.7-.3-.6-.6-1.3-1.3-1.9-.4-.4-.8-.7-1.2-1h0c0,0,0-.2.1-.2.3-.7.4-1.4.4-2,0-.1,0-.4,0-.5.8-2.3.5-3.5,0-4.6,0,0-.1-.3-.1-.3-.1-3.2-.6-4.5-2.2-5.6,0,0-.1-.1-.2-.1,0,0-.1-.2-.2-.4-.4-.6-1-1.8-2.6-2.2-.5-.1-.9-.2-1.2-.3-1.2-.3-1.3-.3-1.5-.8,0-.2,0-.6,0-.8,0-1,0-2.4-1-3.5-3-3.4-6.8-.2-8.5,1.1-.4.3-.7.6-1,.8-2.3,1.6-2.4,1.6-5.2.3-.2-.1-.5-.2-.7-.3-4-1.8-6.8-1.6-8.4.6-.1.1-.2.3-.3.5-.4-.3-.8-.7-1.4-1.3-1-1.1-2.2-2.4-4-3-1.2-.4-2.5-.5-3.7-.7-2-.2-3.6-.4-4.5-1.6-.4-.7-.7-1.4-1-2.1-.4-1.2-1-2.7-2.3-4.1-.1-.1-.2-.2-.4-.4-1.7-1.8-3.2-3.3-4.9-3.3-1.3,0-2.2.7-2.9,1.2-.1,0-.4.3-.5.4-.1,0-.2,0-.5-.3-.5-.4-1.3-1.1-2.5-1.3-1.7-.2-3.1,0-4.2,1-1.7,1.5-2,4-2,5.8,0,.1,0,.2,0,.3,0,.4.2,2.1.2,2.4,0,.3,0,.6.2.8,0,0,0,0,0,0,.3.7.9,1.2,1.3,1.4-.2,0-.5.1-.8.2h0c-.2,0-.5.1-.8.2-1.1.3-2.1.6-3,1-1.5.6-2.6,1-4.3.9-.6,0-1.1-.1-1.7-.2-2.3-.3-6.1-.8-7.1,4.6-.2.9-.1,1.7-.1,2.5,0,1,0,1.5-.2,1.9-.2.3-.6.5-1.2.8-.8.4-1.9,1-2.8,2.2-.7,1.1-1,1.9-1.2,2.6-.2.7-.3.9-1.1,1.4-.2.2-.5.2-.9.3-.8.2-2,.5-3,1.6-1.6,1.7-1.7,3.7-1.8,5.2,0,.7,0,1.4-.3,1.9-.2.5-.4.7-1.1,1.1-.2,0-.4.2-.5.3-.5-.3-1.1-.4-1.6-.5-.4,0-.4,0-.5-.1-.6-.4-.8-.6-1-1.2-.3-.5-.7-1.3-1.6-2.2-1.5-1.5-3.9-3.2-7.4-.7-.9.6-1.3,1.5-1.4,2.3-.6.4-1.4.9-1.9,1.5-.9,1.2-1,2.6-1.1,3.8,0,.2,0,.3,0,.5-2-1.7-5.2-3.2-6.4-3.2-2.1,0-4.9,1.5-6.2,2.7-.4.3-1.1,1.2-1.6,2.3-.3-.2-.6-.4-.8-.5-.4-.3-.7-.5-1-.7-.9-.5-1.4-.8-1.9-1.2-.8-.5-1.5-1-3.1-1.7-1.4-.5-2.5,0-3.2.3-.3-.5-.8-.9-1.6-1-.8-.1-1.6.2-2.3.8-.2.2-.6.7-.9,1.4-1.3-.7-2.6,0-3.2.3,0,0-.2,0-.3.2-.1-.1-.2-.3-.3-.4-1-1.4-2.1-1.8-3.3-1.3-.6.3-2.1,1.3-2.6,2.8-.1.5-.2.9,0,1.4-.4,0-.8,0-1.2.2-1.3.6-1.6,1.8-1.7,2.5,0,0-.1,0-.1,0-1.4.9-3,2-3.2,4.1-.1,1.4.4,3.1,1.3,4.6,0,.1.2.2.2.4-.1,0-.3,0-.4,0-.2,0-.5,0-.8,0-2,.2-3.3.4-4.7,1.5-1.6-.6-2.8-.3-3.8.9-.4.5-2.2,2.9-2.2,5.7,0,1.2.7,2.2,1.4,3.2.2.3.6.9.7,1.1.1.6,0,.9,0,1.1-.1,0-.4-.1-.7-.3-.4-.2-.8-.5-1.2-.8-2.2-1.5-5.4-3.6-8.4-4.4-2.9-.8-6.1-.9-8.4,4.2-.1,0-.3.3-.4.4-.8.7-2.1,1.9-2,3.7,0,1.1.6,1.9,1.2,2.7.2.3.6.9.7,1.2,0,.5-.1.7-.1.8h0c-1.4.7-2,1.8-1.9,3.4,0,.2,0,.3,0,.4-.6.6-.9,1.4-.9,2.3,0,.7.3,1.3.6,1.8-.2.3-.4.6-.5.9h0c-1.2-.8-3-1.3-4.7-.8-2.4.7-4.1,2.5-5.3,5.4-.3.7-.2,1.4.2,2,.4.6,1.1.9,1.8,1,5.5.1,9.3.1,12.4.1h.1c2.6,0,5.1,0,8.2,0,2.6,0,14.8.4,19,.5.3,0,.6,0,.8,0,1.4,0,2.9-.2,3.8-1.3,1-1.2.9-2.6.5-4.6,1.1.2,1.6.3,1.8.4.4.6,1.1,1,1.8,1,25.8,0,50.1.5,61.8,1.1,4.4.2,9.2,0,12.8,0h0c1.7,0,3.4,0,4,0,12.9.8,38.5.9,39.7.7.5,0,.9-.3,1.2-.7.7-.8.9-.8,1.5-1.1.4-.2,1-.4,1.8-.9.5-.3.7-.3,1.2-.3.5,0,1.4.1,2.4-.3.5-.2,1-.5,1.2-.8.1,0,.2-.2.3-.2.2,0,.5-.2.8-.2h0c.9-.3,2-.7,3.1-1.2.1,0,.4,0,.6,0,.6,0,1.5,0,2.2-.6,1.2-.9,1.3-2,1.3-2.5.1-.3.2-.6.3-.8,0-.1,0-.2.1-.3.2,0,.5,0,.8,0,1.5-.1,4-.3,5.9-3.6.4-.8.4-1.5.4-1.9h0c0,0,0,0,.1,0,.5-.2,1.3-.4,2.1-1.2,1.5-.9,1.5-2.8,1.5-3.7.2-.2.5-.3.8-.5.6-.3,1.2-.7,1.8-1.2.6-.4,1.6-.9,2.6-1.4,1.4-.7,2.9-1.3,4-2.3,4.5-3.8,7.1-6.1,10.9-10.1.6-.7.7-1.7.3-2.5Z"/>
  <path class="cls-1" d="M280.4,13.3c0,0,.1.1.1.1.1.2.3.3.4.4.2.3.4.6.7,1.5.4,1,.8,2.3,1.7,3.6,2.6,4.1,7,4.6,9.7,4.9.8.1,1.6.2,2.1.3.2.2.7.7,1,1,.8.9,1.5,1.6,2.4,2.3,1.2.9,2.7,1.4,4.2,1.4s1.2,0,1.8-.2c1.2-.3,2.3-.9,3.1-1.8.2,0,.5.2.8.3.2.1.5.2.7.3,1.9.9,3.5,1.6,5.7,1.6s5.1-1.5,6.6-2.5c1.7,3,4.3,3.8,5.9,4.2,0,0,0,.1.1.1.2.3.4.5.6.8.1.1.2.2.4.4,0,.2,0,.4,0,.7,0,1,.3,1.8.5,2.3h0c-.2.5-.3,1-.4,1.5,0,.2,0,.5,0,.8-1.2,2.9-.4,6.4,2.1,8.4h0c.1.1.3.2.5.3,0,0,0,.1.1.2.4.7.7,1.2,1.1,1.8,0,.2,0,.3.1.5.4,1.6,1.3,3.3,2.9,5.3.3.4.6.7,1,1.2h0c.2.2.4.5.5.6.1.2.2.3.4.4.4,2,1.6,3.8,3.4,4.9.4.2.8.5,1.2.6.2,0,.4.2.5.3,0,0,.1.1.2.2h0c.1.1.2.2.3.3,0,0,.1.2.2.3-1.4,1.3-3,2.6-4.9,4.2-.4.3-1.5.9-2.4,1.3-1.3.6-2.6,1.2-3.9,2.1-.3.2-.7.5-1.2.8-.3.2-.6.4-1,.6-1.7,1.1-2.8,2.8-3.2,4.7-1.9,1-3.2,2.7-3.7,4.8-.5,0-1,0-1.5.2-2.4.5-4.4,2.2-5.2,4.4-.1,0-.3,0-.5.2-.1,0-.3.1-.5.2-.6.3-1.5.6-2.2.8h0s0,0,0,0c-.3,0-.6.2-.9.3-.4.1-.8.3-1.1.5-.2,0-.3.2-.5.3h-.4c-2.1,0-3.7.8-4.6,1.4-.3.2-.5.3-.8.4-.8.3-1.5.8-2.3,1.3-1,0-2.5,0-4.5,0-9.9,0-24.2-.2-32.3-.8-.3,0-.7,0-1.2,0-.9,0-2.1,0-3.4,0h-.1c-2,0-4.5.1-7,.1s-3.7,0-5.2-.1c-10.9-.6-32.5-1.1-56.3-1.1h-4c-.3-.2-.6-.3-.9-.4-.9-.4-2.1-.7-3.5-.9-.3,0-.7,0-1,0-1.9,0-3.9.8-5.2,2.2-1,1-1.6,2.3-1.9,3.7-5.2-.2-14.6-.4-16.9-.4-1.9,0-3.6,0-5.2,0,.2-1,.2-2.1,0-3.1.2-.5.3-1,.4-1.5.5-.6.9-1.2,1.2-1.9.4-.8.6-1.7.7-2.8,0-.7,0-1.4,0-2.1-.1-.9-.4-1.7-.8-2.4.3-.4.6-.8.8-1.3,0,0,0-.2.1-.2,1.9.6,4.4,2.2,6.2,3.4.4.3.9.6,1.3.8,1,.6,2,1.1,3,1.3.6.1,1.1.2,1.7.2,3,0,5.8-1.9,6.8-4.9.5-1.5.6-3.3.2-5,0,0,0-.2,0-.3-.2-.8-.5-1.5-.9-2.1.8-.2,1.6-.7,2.2-1.2.3,0,.8,0,1,0,.2,0,.5,0,.7,0s.3,0,.4,0c2.6-.2,4.8-1.8,5.9-4.2.9-2.1.9-4.5-.2-6.5.7-.5,1.2-1.2,1.7-1.9.8-.4,1.6-1,2.1-1.7,0,0,0,0,0,0,.3,0,.5,0,.8,0,.9,0,1.7-.2,2.5-.5.3,0,.6,0,.9,0,.8,0,1.6-.1,2.4-.4.6-.2,1.2-.5,1.7-.9.2,0,.5,0,.7,0,.6,0,1.2,0,1.9-.2.2,0,.4.2.6.3.5.3,1.1.8,2.2,1.3.1,0,.3.2.5.3h0c.2.2.5.4.9.6,1.2.8,2.6,1.2,4,1.2s1.1,0,1.7-.2c2-.5,3.6-1.8,4.6-3.6,0-.2.1-.3.2-.4.3-.2.7-.4,1-.5.6.3,1.5.8,2,1.2,1.3,1.1,3,1.7,4.7,1.7s1.8-.2,2.7-.5c2.5-1,4.2-3.3,4.4-6,0-.2,0-.4,0-.6h0c.2-.2.4-.3.6-.5.6.8,1.3,1.6,2.5,2.3,1.4.9,2.6,1.2,3.4,1.2.9.3,1.8.5,2.7.5,1.4,0,2.8-.4,4.1-1.2.1,0,.2-.1.3-.2,1-.7,2.9-1.8,4-4.6.6-1.5.7-3,.7-4,0-.1,0-.3,0-.4.7-.2,1.5-.5,2.4-1.1,2.4-1.6,3.4-3.2,4.1-5.2.1-.3.1-.4.2-.6.1,0,.2,0,.3-.2.9-.5,2.4-1.2,3.7-2.9,1.6-2.1,1.7-4.4,1.6-5.9.4,0,.8.1,1.2.1.4,0,.7,0,1.1,0,2.7,0,4.7-.8,6.3-1.4.7-.3,1.4-.5,2.1-.7.2,0,.5-.1.7-.2h0c.2,0,.6-.2.9-.2,2.8-.7,4.9-3,5.3-5.9.2-1.5,0-2.9-.6-4.2.3,0,.5,0,.8,0h.1c1.1,0,2.1-.1,3-.6M273.5,5.1c-1.3,0-2.4.4-3.2,1.1-1.7,1.5-2,4-2,5.8,0,.1,0,.2,0,.3,0,.4.2,2.1.2,2.4,0,.3,0,.6.2.8,0,0,0,0,0,0,.3.7.9,1.2,1.3,1.4-.2,0-.5.1-.8.2h0c-.2,0-.5.1-.8.2-1.1.3-2.1.6-3,1-1.4.5-2.4.9-3.8.9s-.4,0-.6,0c-.6,0-1.1-.1-1.7-.2-.6,0-1.3-.2-2-.2-2.1,0-4.3.8-5.1,4.8-.2.9-.1,1.7-.1,2.5,0,1,0,1.5-.2,1.9-.2.3-.6.5-1.2.8-.8.4-1.9,1-2.8,2.2-.7,1.1-1,1.9-1.2,2.6-.2.7-.3.9-1.1,1.4-.2.2-.5.2-.9.3-.8.2-2,.5-3,1.6-1.6,1.7-1.7,3.7-1.8,5.2,0,.7,0,1.4-.3,1.9-.2.5-.4.7-1.1,1.1-.2,0-.4.2-.5.3-.5-.3-1.1-.4-1.6-.5-.4,0-.4,0-.5-.1-.6-.4-.8-.6-1-1.2-.3-.5-.7-1.3-1.6-2.2-.9-.9-2.2-2-3.9-2s-2.1.3-3.5,1.3c-.9.6-1.3,1.5-1.4,2.3-.6.4-1.4.9-1.9,1.5-.9,1.2-1,2.6-1.1,3.8,0,.2,0,.3,0,.5-2-1.7-5.2-3.2-6.4-3.2h0c-2.1,0-4.9,1.5-6.2,2.7-.4.3-1.1,1.2-1.6,2.3-.3-.2-.6-.4-.8-.5-.4-.3-.7-.5-1-.7-.9-.5-1.4-.8-1.9-1.2-.8-.5-1.5-1-3.1-1.7-.4-.2-.9-.2-1.3-.2-.8,0-1.5.3-1.9.6-.3-.5-.8-.9-1.6-1-.1,0-.2,0-.4,0-.7,0-1.4.3-1.9.9-.2.2-.6.7-.9,1.4-.4-.2-.9-.3-1.2-.3-.8,0-1.6.4-1.9.6,0,0-.2,0-.3.2-.1-.1-.2-.3-.3-.4-.7-1-1.5-1.5-2.4-1.5s-.6,0-.9.2c-.6.3-2.1,1.3-2.6,2.8-.1.5-.2.9,0,1.4h-.2c-.3,0-.7,0-1.1.2-1.3.6-1.6,1.8-1.7,2.5,0,0-.1,0-.1,0-1.4.9-3,2-3.2,4.1-.1,1.4.4,3.1,1.3,4.6,0,.1.2.2.2.4-.1,0-.3,0-.4,0-.2,0-.5,0-.8,0-2,.2-3.3.4-4.7,1.5-.5-.2-1-.3-1.4-.3-.9,0-1.7.4-2.3,1.2-.4.5-2.2,2.9-2.2,5.7,0,1.2.7,2.2,1.4,3.2.2.3.6.9.7,1.1.1.6,0,.9,0,1.1-.1,0-.4-.1-.7-.3-.4-.2-.8-.5-1.2-.8-2.2-1.5-5.4-3.6-8.4-4.4-.8-.2-1.7-.4-2.6-.4-2.1,0-4.2,1-5.9,4.6-.1,0-.3.3-.4.4-.8.7-2.1,1.9-2,3.7,0,1.1.6,1.9,1.2,2.7.2.3.6.9.7,1.2,0,.5-.1.7-.1.8h0c-1.4.7-2,1.8-1.9,3.4,0,.2,0,.3,0,.4-.6.6-.9,1.4-.9,2.3,0,.7.3,1.3.6,1.8-.2.3-.4.6-.5.9h0c-.9-.6-2.1-1-3.2-1s-1,0-1.5.2c-2.4.7-4.1,2.5-5.3,5.4-.3.7-.2,1.4.2,2,.4.6,1.1.9,1.8,1,4.6,0,8.1.1,10.9.1h1.7c2.6,0,5.1,0,8.2,0,2.6,0,14.8.4,19,.5.3,0,.6,0,.8,0,1.4,0,2.9-.2,3.8-1.3,1-1.2.9-2.6.5-4.6,1.1.2,1.6.3,1.8.4.4.6,1.1,1,1.8,1h5.9c23.6,0,45.1.6,55.9,1.1,1.8,0,3.8.1,5.6.1s5.1,0,7.2-.1h0c1.2,0,2.4,0,3.2,0s.5,0,.7,0c8.9.6,24,.8,32.8.8s6.5,0,6.9,0c.5,0,.9-.3,1.2-.7.7-.8.9-.8,1.5-1.1.4-.2,1-.4,1.8-.9.4-.2.5-.3.8-.3s.2,0,.4,0c.2,0,.5,0,.8,0,.5,0,1,0,1.6-.3.5-.2,1-.5,1.2-.8.1,0,.2-.2.3-.2.2,0,.5-.2.8-.2h0c.9-.3,2-.7,3.1-1.2.1,0,.4,0,.6,0,.6,0,1.5,0,2.2-.6,1.2-.9,1.3-2,1.3-2.5.1-.3.2-.6.3-.8,0-.1,0-.2.1-.3.2,0,.5,0,.8,0,1.5-.1,4-.3,5.9-3.6.4-.8.4-1.5.4-1.9h0c0,0,0,0,.1,0,.5-.2,1.3-.4,2.1-1.2,1.5-.9,1.5-2.8,1.5-3.7.2-.2.5-.3.8-.5.6-.3,1.2-.7,1.8-1.2.6-.4,1.6-.9,2.6-1.4,1.4-.7,2.9-1.3,4-2.3,4.5-3.8,7.1-6.1,10.9-10.1.6-.7.8-1.7.3-2.5-.4-.7-1.1-1.2-1.9-1.2s-.2,0-.4,0c-.3,0-.5,0-.8.2-.2,0-.5,0-.6,0h0s0,0-.1,0c-.4-.3-.8-.4-1.2-.4-.5-.8-1.1-1.4-1.6-1.8h0c0,0,0-.1-.1-.1-.8-.8-1.7-1.2-2.4-1.5-.2-.1-.5-.2-.6-.3,0-.4,0-.8,0-1.3,0-.7-.3-1.4-.9-1.8-.3-.2-.6-.4-.9-.6-.3-.3-.6-.7-.9-1-.2-.2-.5-.5-.6-.6-1.2-1.5-1.5-2.2-1.5-2.5.3-.5.4-1.2.2-1.8-.2-.7-.8-1.2-1.5-1.3-.1-.1-.3-.5-.4-.7-.3-.6-.6-1.3-1.3-1.9-.4-.4-.8-.7-1.2-1h0c0,0,0-.2.1-.2.3-.7.4-1.4.4-2,0-.1,0-.4,0-.5.8-2.3.5-3.5,0-4.6,0,0-.1-.3-.1-.3-.1-3.2-.6-4.5-2.2-5.6,0,0-.1-.1-.2-.1,0,0-.1-.2-.2-.4-.4-.6-1-1.8-2.6-2.2-.5-.1-.9-.2-1.2-.3-1.2-.3-1.3-.3-1.5-.8,0-.2,0-.6,0-.8,0-1,0-2.4-1-3.5-1-1.1-2-1.5-3.1-1.5-2.2,0-4.2,1.7-5.4,2.6-.4.3-.7.6-1,.8-1.2.9-1.8,1.2-2.5,1.2s-1.4-.3-2.8-1c-.2-.1-.5-.2-.7-.3-1.8-.8-3.4-1.2-4.7-1.2s-2.9.6-3.7,1.8c-.1.1-.2.3-.3.5-.4-.3-.8-.7-1.4-1.3-1-1.1-2.2-2.4-4-3-1.2-.4-2.5-.5-3.7-.7-2-.2-3.6-.4-4.5-1.6-.4-.7-.7-1.4-1-2.1-.4-1.2-1-2.7-2.3-4.1-.1-.1-.2-.2-.4-.4-1.7-1.8-3.2-3.3-4.9-3.3h0c-1.3,0-2.2.7-2.9,1.2-.1,0-.4.3-.5.4-.1,0-.2,0-.5-.3-.5-.4-1.3-1.1-2.5-1.3-.4-.3-.7-.3-1.1-.3h0Z"/>
</svg>