<?xml version="1.0" encoding="UTF-8"?>
<svg width="29px" height="14px" viewBox="0 0 29 14" version="1.1" xmlns="http://www.w3.org/2000/svg" xmlns:xlink="http://www.w3.org/1999/xlink">
    <!-- Generator: Sketch 56.3 (81716) - https://sketch.com -->
    <title>moms</title>
    <desc>Created with Sketch.</desc>
    <g id="Page-1" stroke="none" stroke-width="1" fill="none" fill-rule="evenodd">
        <g id="moms" fill-rule="nonzero">
            <path d="M4.63686487,3.86607959 L3.44765893,3.86607959 L3.44765893,2.51401085 C3.44765893,1.94681247 3.53455323,1.3252362 3.53455323,1.3252362 L3.51298939,1.3252362 L2.82326593,3.86607959 L1.88404082,3.86607959 L1.18888646,1.33052962 L1.16700316,1.33052962 C1.16700316,1.33052962 1.2650787,1.94681247 1.2650787,2.51401085 L1.2650787,3.86607959 L0.162926803,3.86607959 L0.162926803,0.114806637 L1.85688636,0.114806637 L2.42169927,2.27933573 L2.44310338,2.27933573 L3.00264514,0.114806637 L4.63686487,0.114806637 L4.63686487,3.86607959 Z" id="Path" fill="#FFFFFF"></path>
            <path d="M9.13338906,1.99037896 C9.13338906,3.27170831 8.38967612,3.93146141 7.11357589,3.93146141 C5.83763541,3.93146141 5.09935335,3.27170831 5.09935335,1.99037896 C5.09935335,0.709049595 5.83763541,0.0492965083 7.11357589,0.0492965083 C8.38967612,0.0492965083 9.13338906,0.709049595 9.13338906,1.99037896 Z M6.32641582,1.81601678 L6.32641582,2.16474113 C6.32641582,2.67740119 6.58677924,3.03173978 7.11357589,3.03173978 C7.64021283,3.03173978 7.9063266,2.67740119 7.9063266,2.16474113 L7.9063266,1.81601678 C7.9063266,1.30335672 7.64021283,0.949018137 7.11357589,0.949018137 C6.58677924,0.949018137 6.32641582,1.30335672 6.32641582,1.81601678 Z" id="Combined-Shape" fill="#FFFFFF"></path>
            <path d="M14.1258017,3.86607959 L12.9367555,3.86607959 L12.9367555,2.51401085 C12.9367555,1.94681247 13.0239693,1.3252362 13.0239693,1.3252362 L13.002086,1.3252362 L12.3122028,3.86607959 L11.3731374,3.86607959 L10.6783025,1.33052962 L10.6564192,1.33052962 C10.6564192,1.33052962 10.7541753,1.94681247 10.7541753,2.51401085 L10.7541753,3.86607959 L9.6520234,3.86607959 L9.6520234,0.114806637 L11.345983,0.114806637 L11.9107959,2.27933573 L11.9322,2.27933573 L12.491582,0.114806637 L14.1258017,0.114806637 L14.1258017,3.86607959 Z" id="Path" fill="#FFFFFF"></path>
            <path d="M18.1864807,1.20518777 L18.1864807,1.27047333 L17.0622858,1.27047333 L17.0622858,1.24897882 C17.0622858,1.0523201 16.9265135,0.867050273 16.5792558,0.867050273 C16.2478115,0.867050273 16.0850445,0.981741121 16.0850445,1.11231224 C16.0850445,1.67405678 18.2626729,1.23245692 18.2896678,2.62286289 C18.2896678,3.55530751 17.5836516,3.93162181 16.6444265,3.93162181 C15.5962641,3.93162181 14.7982422,3.66438411 14.7982422,2.59559374 L15.9331392,2.59559374 C15.9331392,2.99933761 16.1666676,3.06991658 16.5358086,3.06991658 C16.7528846,3.06991658 17.0622858,3.05371551 17.0622858,2.81920079 C17.0622858,2.27927157 14.8578223,2.71012418 14.8578223,1.24897882 C14.8578223,0.37652634 15.6508925,0.0492965083 16.5358086,0.0492965083 C17.4371772,0.0492965083 18.1703477,0.403795492 18.1864807,1.20518777 L18.1864807,1.20518777 Z" id="Path" fill="#FFFFFF"></path>
            <path d="M1.85683844,5.03387305 C3.13277893,5.03387305 3.81691177,5.62834057 3.81691177,6.90966992 C3.81691177,8.19067848 3.13277893,8.785146 1.85683844,8.785146 L0.238911392,8.785146 L0.238911392,5.03387305 L1.85683844,5.03387305 Z M1.43897911,5.93359466 L1.43897911,7.88542437 L1.83495513,7.88542437 C2.36159207,7.88542437 2.58984932,7.5854637 2.58984932,7.07328484 L2.58984932,6.7457342 C2.58984932,6.23355535 2.36159207,5.93359466 1.83495513,5.93359466 L1.43897911,5.93359466 Z" id="Combined-Shape" fill="#FFFFFF"></path>
            <polygon id="Path" fill="#FFFFFF" points="4.30496894 8.79006211 4.30496894 5.02546584 7.52919255 5.02546584 7.52919255 5.92608696 5.49378882 5.92608696 5.49378882 6.4484472 7.24099379 6.4484472 7.24099379 7.31304348 5.49378882 7.31304348 5.49378882 7.88944099 7.56521739 7.88944099 7.56521739 8.79006211"></polygon>
            <path d="M12.722986,8.78519413 L11.53378,8.78519413 L11.53378,7.43280456 C11.53378,6.86592699 11.6206744,6.24435072 11.6206744,6.24435072 L11.5991105,6.24435072 L10.909387,8.78519413 L9.97032167,8.78519413 L9.27500759,6.24964415 L9.25328401,6.24964415 C9.25328401,6.24964415 9.35119983,6.86592699 9.35119983,7.43280456 L9.35119983,8.78519413 L8.24904793,8.78519413 L8.24904793,5.03392116 L9.94316721,5.03392116 L10.5078204,7.19845025 L10.5293842,7.19845025 L11.0887663,5.03392116 L12.722986,5.03392116 L12.722986,8.78519413 Z" id="Path" fill="#FFFFFF"></path>
            <path d="M17.1689709,8.78519413 L15.8986211,8.78519413 L15.7411251,8.25649338 L14.4322798,8.25649338 L14.2751034,8.78519413 L13.0477215,8.78519413 L14.4103965,5.03392116 L15.8061361,5.03392116 L17.1689709,8.78519413 Z M15.0783964,6.08073581 L14.6824204,7.41660347 L15.4909846,7.41660347 L15.1002797,6.08073581 L15.0783964,6.08073581 Z" id="Combined-Shape" fill="#FFFFFF"></path>
            <polygon id="Path" fill="#FFFFFF" points="21.2906832 8.79006211 20.2279503 8.79006211 18.6608696 6.97080745 18.6608696 8.79006211 17.5621118 8.79006211 17.5621118 5.02546584 18.6068323 5.02546584 20.173913 6.88074534 20.173913 5.02546584 21.2906832 5.02546584"></polygon>
            <path d="M23.7587052,5.03387305 C25.0346457,5.03387305 25.7187786,5.62834057 25.7187786,6.90966992 C25.7187786,8.19067848 25.0346457,8.785146 23.7587052,8.785146 L22.1407781,8.785146 L22.1407781,5.03387305 L23.7587052,5.03387305 Z M23.3406862,5.93359466 L23.3406862,7.88542437 L23.7368219,7.88542437 C24.2637784,7.88542437 24.491716,7.5854637 24.491716,7.07328484 L24.491716,6.7457342 C24.491716,6.23355535 24.2637784,5.93359466 23.7368219,5.93359466 L23.3406862,5.93359466 Z" id="Combined-Shape" fill="#FFFFFF"></path>
            <path d="M1.36281881,9.96490579 L2.75807922,9.96490579 L4.12107375,13.7161787 L2.85056415,13.7161787 L2.69306825,13.1869968 L1.38470212,13.1869968 L1.22704648,13.7161787 L-1.5973216e-05,13.7161787 L1.36281881,9.96490579 Z M2.0308187,11.0112392 L1.63420375,12.3472673 L2.44340687,12.3472673 L2.05222281,11.0112392 L2.0308187,11.0112392 Z" id="Combined-Shape" fill="#FFFFFF"></path>
            <path d="M7.94413521,11.5077142 L6.79853616,11.5077142 C6.79853616,11.0768616 6.57059836,10.7988767 6.14171752,10.7988767 C5.63121353,10.7988767 5.4358611,11.1533757 5.4358611,11.6658753 L5.4358611,12.0149205 C5.4358611,12.5272597 5.64191558,12.8815983 6.13085572,12.8815983 C6.60318373,12.8815983 6.83639267,12.6255891 6.83639267,12.1947365 L7.94413521,12.1947365 C7.94413521,13.22535 7.28731657,13.7813199 6.14698867,13.7813199 C4.87104819,13.7813199 4.20863892,13.1217273 4.20863892,11.8402375 C4.20863892,10.5592289 4.87104819,9.89915504 6.14698867,9.89915504 C7.23300764,9.89915504 7.94413521,10.4608996 7.94413521,11.5077142 L7.94413521,11.5077142 Z" id="Path" fill="#FFFFFF"></path>
            <polygon id="Path" fill="#FFFFFF" points="11.7440994 10.915528 10.5192547 10.915528 10.5192547 13.7074534 9.33043478 13.7074534 9.33043478 10.915528 8.10559006 10.915528 8.10559006 9.96086957 11.7440994 9.96086957"></polygon>
            <polygon id="Path" fill="#FFFFFF" points="12.2304348 13.7074534 13.4372671 13.7074534 13.4372671 9.96086957 12.2304348 9.96086957"></polygon>
            <path d="M18.0670011,11.8403658 C18.0670011,13.1218556 17.3232882,13.7814483 16.0470282,13.7814483 C14.770928,13.7814483 14.0324862,13.1218556 14.0324862,11.8403658 C14.0324862,10.5590365 14.770928,9.89928336 16.0470282,9.89928336 C17.3232882,9.89928336 18.0670011,10.5590365 18.0670011,11.8403658 Z M15.2600279,11.6660036 L15.2600279,12.014728 C15.2600279,12.5273881 15.5203913,12.881887 16.0470282,12.881887 C16.5736651,12.881887 16.8397789,12.5273881 16.8397789,12.014728 L16.8397789,11.6660036 C16.8397789,11.1533436 16.5736651,10.799005 16.0470282,10.799005 C15.5203913,10.799005 15.2600279,11.1533436 15.2600279,11.6660036 Z" id="Combined-Shape" fill="#FFFFFF"></path>
            <polygon id="Path" fill="#FFFFFF" points="22.2093168 13.7074534 21.1645963 13.7074534 19.5975155 11.8881988 19.5975155 13.7074534 18.4987578 13.7074534 18.4987578 9.96086957 19.5434783 9.96086957 21.110559 11.8161491 21.110559 9.96086957 22.2093168 9.96086957"></polygon>
            <polygon id="Path" fill="#FFFFFF" points="19.0391304 3.60248447 21.6689441 3.60248447 21.6689441 2.99006211 19.0391304 2.99006211"></polygon>
            <polygon id="Path" fill="#FFFFFF" points="19.0391304 0.99068323 21.6689441 0.99068323 21.6689441 0.37826087 19.0391304 0.37826087"></polygon>
            <polygon id="Path" fill="#FFFFFF" points="19.0391304 2.28757764 21.6689441 2.28757764 21.6689441 1.6931677 19.0391304 1.6931677"></polygon>
            <polygon id="Path" fill="#F4F4F4" points="22.2273292 3.60248447 28.9639752 3.60248447 28.9639752 2.99006211 22.2273292 2.99006211"></polygon>
            <polygon id="Path" fill="#F4F4F4" points="22.2273292 1.6931677 22.2273292 2.28757764 28.9639752 2.28757764 28.9639752 1.6931677"></polygon>
            <polygon id="Path" fill="#F4F4F4" points="22.2273292 0.99068323 28.9639752 0.99068323 28.9639752 0.37826087 22.2273292 0.37826087"></polygon>
        </g>
    </g>
</svg>