<?xml version="1.0" encoding="UTF-8"?>
<svg id="svg246"
  xmlns="http://www.w3.org/2000/svg" version="1.1" viewBox="0 0 400 190">
  <defs>
    <style>
      .cls-1 {
        fill: currentColor;
        fill-rule: evenodd;
        stroke-width: 0px;
      }
    </style>
  </defs>
  <path id="path128" class="cls-1" d="M98.1,0C80.5,0,70.4,9.1,70.4,26.7s10.2,26.7,27.7,26.7,27.8-9.1,27.8-26.7S115.7,0,98.1,0ZM227.9,0c-12.2,0-23.1,4.5-23.1,16.5,0,20.1,30.4,14.2,30.4,21.6s-4.3,3.4-7.2,3.4c-5.1,0-8.3-1-8.3-6.5h-15.6c0,14.7,11,18.4,25.4,18.4s22.7-5.2,22.7-18c-.4-19.1-30.4-13.1-30.4-20.8s2.2-3.4,6.8-3.4,6.7,2.5,6.7,5.3v.3h15.5v-.9c-.2-11-10.3-15.9-22.7-15.9h0ZM2.4.9v51.7h15.2v-18.6c0-7.8-1.4-16.3-1.4-16.3h.3l9.6,34.9h12.9l9.5-35h.3s-1.2,8.6-1.2,16.4v18.6h16.4V.9h-22.5l-7.7,29.8h-.3L25.7.9H2.4ZM133.1.9v51.7h15.2v-18.6c0-7.8-1.3-16.3-1.3-16.3h.3l9.6,34.9h12.9l9.5-35h.3s-1.2,8.6-1.2,16.4v18.6h16.4V.9h-22.5l-7.7,29.8h-.3l-7.8-29.8h-23.3,0ZM98.1,12.4c7.3,0,10.9,4.9,10.9,11.9v4.8c0,7.1-3.7,11.9-10.9,11.9s-10.8-4.9-10.8-11.9v-4.8c0-7.1,3.6-11.9,10.8-11.9ZM59.4,68.5v51.8h44.9v-12.4h-28.5v-7.9h24.1v-11.9h-24.1v-7.2h28v-12.4h-44.4ZM242,68.5v51.8h15.1v-25.1l21.6,25.1h14.6v-51.8h-15.4v25.5l-21.6-25.5h-14.4ZM3.4,68.6v51.7h22.3c17.6,0,27-8.2,27-25.8s-9.4-25.8-27-25.8H3.4ZM113.7,68.6v51.7h15.2v-18.6c0-7.8-1.4-16.3-1.4-16.3h.3l9.6,34.9h12.9l9.5-35h.3s-1.2,8.6-1.2,16.4v18.6h16.4v-51.7h-22.5l-7.7,29.8h-.3l-7.8-29.8h-23.3,0ZM198.6,68.6l-18.8,51.7h16.9l2.2-7.3h18l2.2,7.3h17.5l-18.8-51.7h-19.2,0ZM305,68.6v51.7h22.3c17.6,0,27-8.2,27-25.8s-9.4-25.8-27-25.8h-22.3ZM20,81h5.5c7.3,0,10.4,4.1,10.4,11.2v4.5c0,7.1-3.1,11.2-10.4,11.2h-5.5v-26.9h0ZM321.6,81h5.5c7.3,0,10.4,4.1,10.4,11.2v4.5c0,7.1-3.1,11.2-10.4,11.2h-5.5v-26.9h0ZM207.8,83.1h.3l5.4,18.4h-11.1l5.4-18.4h0ZM84.8,135.6c-17.6,0-26.7,9.1-26.7,26.7s9.1,26.7,26.7,26.7,24.7-7.7,24.7-21.8h-15.3c0,5.9-3.2,9.5-9.7,9.5s-9.6-4.9-9.6-11.9v-4.8c0-7.1,2.7-11.9,9.7-11.9s9,3.8,9,9.8h15.8c0-14.4-9.8-22.2-24.7-22.2h0ZM221.1,135.6c-17.6,0-27.7,9.1-27.7,26.7s10.2,26.7,27.7,26.7,27.8-9.1,27.8-26.7-10.2-26.7-27.8-26.7h0ZM111.8,136.5v13.1h16.9v38.4h16.4v-38.4h16.9v-13.1h-50.1ZM168.6,136.5v51.6h16.6v-51.6h-16.6ZM254.9,136.5v51.6h15.1v-25l21.6,25h14.4v-51.6h-15.1v25.5l-21.6-25.5h-14.4ZM18.9,136.5L.2,188.2h16.9l2.2-7.3h18l2.2,7.3h17.5l-18.8-51.7h-19.2,0ZM221.1,148c7.3,0,10.9,4.9,10.9,11.9v4.8c0,7.1-3.7,11.9-10.9,11.9s-10.8-4.9-10.8-11.9v-4.8c0-7.1,3.6-11.9,10.8-11.9h0ZM28.1,151h.3l5.4,18.4h-11.1s5.5-18.4,5.5-18.4Z"/>
  <path id="polygon176" class="cls-1" d="M306.2,4.5v8.4h92.8V4.5h-92.8ZM306.2,22.6v8.2h92.8v-8.2h-92.8ZM306.2,40.5v8.4h92.8v-8.4h-92.8Z"/>
  <path id="polygon178" class="cls-1" d="M262.3,4.5v8.4h36.2V4.5h-36.2ZM262.3,22.6v8.2h36.2v-8.2h-36.2ZM262.3,40.5v8.4h36.2v-8.4h-36.2Z"/>
</svg>