<?xml version="1.0" encoding="UTF-8"?>
<svg width="68px" height="14px" viewBox="0 0 19 4" version="1.1" xmlns="http://www.w3.org/2000/svg" xmlns:xlink="http://www.w3.org/1999/xlink">
    <!-- Generator: Sketch 56.3 (81716) - https://sketch.com -->
    <title>moms copy</title>
    <desc>Created with Sketch.</desc>
    <g id="Page-1" stroke="none" stroke-width="1" fill="none" fill-rule="evenodd">
        <g id="moms-copy" fill="#FFFFFF" fill-rule="nonzero">
            <path d="M4.63686487,3.86607959 L3.44765893,3.86607959 L3.44765893,2.51401085 C3.44765893,1.94681247 3.53455323,1.3252362 3.53455323,1.3252362 L3.51298939,1.3252362 L2.82326593,3.86607959 L1.88404082,3.86607959 L1.18888646,1.33052962 L1.16700316,1.33052962 C1.16700316,1.33052962 1.2650787,1.94681247 1.2650787,2.51401085 L1.2650787,3.86607959 L0.162926803,3.86607959 L0.162926803,0.114806637 L1.85688636,0.114806637 L2.42169927,2.27933573 L2.44310338,2.27933573 L3.00264514,0.114806637 L4.63686487,0.114806637 L4.63686487,3.86607959 Z" id="Path"></path>
            <path d="M9.13338906,1.99037896 C9.13338906,3.27170831 8.38967612,3.93146141 7.11357589,3.93146141 C5.83763541,3.93146141 5.09935335,3.27170831 5.09935335,1.99037896 C5.09935335,0.709049595 5.83763541,0.0492965083 7.11357589,0.0492965083 C8.38967612,0.0492965083 9.13338906,0.709049595 9.13338906,1.99037896 Z M6.32641582,1.81601678 L6.32641582,2.16474113 C6.32641582,2.67740119 6.58677924,3.03173978 7.11357589,3.03173978 C7.64021283,3.03173978 7.9063266,2.67740119 7.9063266,2.16474113 L7.9063266,1.81601678 C7.9063266,1.30335672 7.64021283,0.949018137 7.11357589,0.949018137 C6.58677924,0.949018137 6.32641582,1.30335672 6.32641582,1.81601678 Z" id="Combined-Shape"></path>
            <path d="M14.1258017,3.86607959 L12.9367555,3.86607959 L12.9367555,2.51401085 C12.9367555,1.94681247 13.0239693,1.3252362 13.0239693,1.3252362 L13.002086,1.3252362 L12.3122028,3.86607959 L11.3731374,3.86607959 L10.6783025,1.33052962 L10.6564192,1.33052962 C10.6564192,1.33052962 10.7541753,1.94681247 10.7541753,2.51401085 L10.7541753,3.86607959 L9.6520234,3.86607959 L9.6520234,0.114806637 L11.345983,0.114806637 L11.9107959,2.27933573 L11.9322,2.27933573 L12.491582,0.114806637 L14.1258017,0.114806637 L14.1258017,3.86607959 Z" id="Path"></path>
            <path d="M18.1864807,1.20518777 L18.1864807,1.27047333 L17.0622858,1.27047333 L17.0622858,1.24897882 C17.0622858,1.0523201 16.9265135,0.867050273 16.5792558,0.867050273 C16.2478115,0.867050273 16.0850445,0.981741121 16.0850445,1.11231224 C16.0850445,1.67405678 18.2626729,1.23245692 18.2896678,2.62286289 C18.2896678,3.55530751 17.5836516,3.93162181 16.6444265,3.93162181 C15.5962641,3.93162181 14.7982422,3.66438411 14.7982422,2.59559374 L15.9331392,2.59559374 C15.9331392,2.99933761 16.1666676,3.06991658 16.5358086,3.06991658 C16.7528846,3.06991658 17.0622858,3.05371551 17.0622858,2.81920079 C17.0622858,2.27927157 14.8578223,2.71012418 14.8578223,1.24897882 C14.8578223,0.37652634 15.6508925,0.0492965083 16.5358086,0.0492965083 C17.4371772,0.0492965083 18.1703477,0.403795492 18.1864807,1.20518777 L18.1864807,1.20518777 Z" id="Path"></path>
        </g>
    </g>
</svg>