<?xml version="1.0" encoding="UTF-8"?>
<svg id="svg246"
  xmlns="http://www.w3.org/2000/svg" viewBox="0 0 1024 530">
  <defs>
    <style>
      .cls-1, .cls-2 {
        fill: currentColor;
        fill-rule: evenodd;
        stroke-width: 0px;
      }
    </style>
  </defs>
  <path id="path128" class="cls-1" d="M260.42,36.79c-43.56,0-68.77,22.53-68.77,66.28s25.2,66.27,68.77,66.27,68.97-22.52,68.97-66.27-25.4-66.28-68.97-66.28ZM582.12,36.79c-30.21,0-57.3,11.17-57.3,40.96,0,49.89,75.26,35.19,75.26,53.62,0,8.01-10.56,8.55-17.97,8.55-12.6,0-20.58-2.41-20.58-16.19h-38.75c0,36.49,27.24,45.62,63.03,45.62,32.07,0,56.18-12.86,56.18-44.7-.92-47.47-75.28-32.39-75.28-51.57,0-4.46,5.56-8.37,16.88-8.37s16.49,6.32,16.49,13.03v.73h38.39v-2.22c-.55-27.36-25.58-39.47-56.36-39.47ZM23.1,39.03v128.08h37.63v-46.16c0-19.37-3.35-40.41-3.35-40.41h.74l23.74,86.57h32.07l23.55-86.75h.73s-2.97,21.22-2.97,40.59v46.16h40.6V39.03h-55.79l-19.11,73.91h-.72l-19.29-73.91H23.1ZM347.09,39.03v128.08h37.63v-46.16c0-19.37-3.34-40.41-3.34-40.41h.74l23.72,86.57h32.06l23.55-86.75h.74s-2.97,21.22-2.97,40.59v46.16h40.59V39.03h-55.79l-19.1,73.91h-.73l-19.28-73.91h-57.84ZM260.42,67.52c17.98,0,27.07,12.09,27.07,29.6v11.9c0,17.5-9.09,29.61-27.07,29.61s-26.87-12.1-26.87-29.61v-11.9c0-17.5,8.88-29.6,26.87-29.6ZM164.53,206.7v128.54h111.31v-30.75h-70.72v-19.69h59.65v-29.51h-59.65v-17.84h69.5v-30.75h-110.09ZM617.16,206.7v128.54h37.51v-62.12l53.51,62.12h36.28v-128.54h-38.12v63.34l-53.5-63.34h-35.67ZM25.7,206.99v128.08h55.24c43.56,0,66.93-20.3,66.93-64.03s-23.36-64.05-66.93-64.05H25.7ZM299.19,206.99v128.08h37.63v-46.17c0-19.35-3.35-40.4-3.35-40.4h.74l23.73,86.57h32.07l23.54-86.76h.74s-2.97,21.23-2.97,40.59v46.17h40.6v-128.08h-55.79l-19.1,73.9h-.74l-19.28-73.9h-57.84ZM509.55,206.99l-46.52,128.08h41.91l5.37-18.05h44.68l5.38,18.05h43.37l-46.53-128.08h-47.66ZM773.49,206.99v128.08h55.24c43.56,0,66.92-20.3,66.92-64.03s-23.35-64.05-66.92-64.05h-55.24ZM66.67,237.7h13.53c17.98,0,25.78,10.25,25.78,27.73v11.18c0,17.49-7.8,27.72-25.78,27.72h-13.53v-66.64ZM814.45,237.7h13.54c17.99,0,25.76,10.25,25.76,27.73v11.18c0,17.49-7.77,27.72-25.76,27.72h-13.54v-66.64ZM532.36,242.72h.74l13.34,45.62h-27.6l13.51-45.62ZM227.42,373.09c-43.56,0-66.18,22.54-66.18,66.28s22.62,66.27,66.18,66.27c38.93,0,61.36-18.98,61.36-54.17h-37.82c0,14.71-7.96,23.46-24.08,23.46s-23.73-12.1-23.73-29.6v-11.92c0-17.5,6.68-29.6,24.11-29.6,14.64,0,22.43,9.48,22.43,24.19h39.11c0-35.74-24.28-54.92-61.36-54.92h0ZM565.43,373.11c-43.57,0-68.78,22.52-68.78,66.27s25.21,66.28,68.78,66.28,68.97-22.53,68.97-66.28-25.4-66.27-68.97-66.27h0ZM294.29,375.21v32.59h41.82v95.32h40.59v-95.32h41.81v-32.59h-124.22ZM435.13,375.21v127.91h41.2v-127.91h-41.2ZM649.14,375.21v127.91h37.52v-62.11l53.5,62.11h35.67v-127.91h-37.52v63.34l-53.5-63.34h-35.67ZM64.07,375.34l-46.53,128.08h41.9l5.38-18.07h44.67l5.38,18.07h43.37l-46.53-128.08h-47.64ZM565.43,403.82c17.98,0,27.07,12.09,27.07,29.6v11.92c0,17.5-9.09,29.61-27.07,29.61s-26.87-12.1-26.87-29.61v-11.92c0-17.5,8.89-29.6,26.87-29.6h0ZM86.88,411.06h.72l13.36,45.62h-27.63l13.55-45.62Z"/>
  <path id="polygon176" class="cls-2" d="M776.45,48.02v20.91h230.01v-20.91h-230.01ZM776.45,92.92v20.29h230.01v-20.29h-230.01ZM776.45,137.2v20.91h230.01v-20.91h-230.01Z"/>
  <path id="polygon178" class="cls-1" d="M667.59,48.02v20.91h89.8v-20.91h-89.8ZM667.59,92.92v20.29h89.8v-20.29h-89.8ZM667.59,137.2v20.91h89.8v-20.91h-89.8Z"/>
</svg>