<?xml version="1.0" encoding="UTF-8"?>
<svg id="Layer_1" data-name="Layer 1"
  xmlns="http://www.w3.org/2000/svg" viewBox="0 0 1280 1024">
  <defs>
    <style>
      .cls-1 {
        fill: currentColor;
        stroke-width: 0px;
      }
    </style>
  </defs>
  <path class="cls-1" d="M862.01,491.45v-224.23l-12.27-18.41v-75.3l-82-82-326.31,133.87v50.76l-19.52,23.99v337.47l-20.13,33.47v18.28h169.62v-127.6l-9.21-13.96,19.85-19.85v-48.18s32.19-92.52,129.3-64.64l-.49,76.91-18.41,27.89.56,120.48-17.85,33.47v15.49h204.15v-169.44l-17.29-28.45ZM711.52,377.68c-131.38-37.5-156.79,84.17-156.79,84.17h-31.67c.72-4.16-2.14-163.11,188.46-157.31v73.15Z"/>
  <g>
    <path class="cls-1" d="M136.64,887.87v-169.1h46.5c40.63,0,55.9,17.14,55.9,46.03v20.9c0,17.38-6.81,30.3-23.49,36.87l38.75,65.29h-37.11l-33.82-60.36h-13.62v60.36h-33.12ZM169.76,746.02v54.25h14.09c14.33,0,22.08-6.34,22.08-19.96v-13.62c0-14.09-7.75-20.67-21.61-20.67h-14.56Z"/>
    <path class="cls-1" d="M311.6,862.98c10.8,0,17.15-4.7,17.15-15.27v-2.11h31.94v7.99c0,23.25-18.32,36.64-49.09,36.64s-48.85-13.39-48.85-36.64v-58.25c0-23.25,18.08-36.64,48.85-36.64s49.09,13.39,49.09,36.64v41.34h-65.99v11.04c0,10.57,5.63,15.27,16.91,15.27ZM294.69,811.54h34.05v-10.34c0-10.57-6.34-15.26-17.15-15.26s-16.91,4.69-16.91,15.26v10.34Z"/>
    <path class="cls-1" d="M383.45,888.81v-170.04h31.94v50.26c13.15-7.28,21.84-10.33,31.94-10.33,22.55,0,34.52,13.39,34.52,35.7v58.48c0,22.07-12.21,36.64-35.46,36.64-10.57,0-21.37-3.05-31-10.1v.24l-2.35,9.16h-29.59ZM415.39,795.8v57.78c7.05,4.46,13.62,6.81,20.67,6.81,9.63,0,14.09-4.93,14.09-16.68v-40.16c0-11.27-4.46-15.74-12.92-15.74-5.4,0-11.27,2.35-21.84,7.98Z"/>
    <path class="cls-1" d="M575.08,887.87l-1.88-8.46c-11.74,6.34-24.43,10.8-36.64,10.8-20.91,0-31-12.68-31-33.58v-95.59h31.94v86.19c0,9.63,4.47,13.86,12.21,13.86,6.58,0,13.15-3.05,19.96-6.58v-93.47h31.94v126.82h-26.54Z"/>
    <path class="cls-1" d="M626.97,745.55v-33.82h34.05v33.82h-34.05ZM627.9,887.87v-126.82h31.94v126.82h-31.94Z"/>
    <path class="cls-1" d="M717.38,718.77v126.35c0,11.27,3.29,16.68,10.8,16.68,2.58,0,6.81-.47,8.92-1.18v26.54c-4.23,1.17-8.22,1.88-20.9,1.88-20.67,0-30.77-10.8-30.77-38.51v-131.76h31.94Z"/>
    <path class="cls-1" d="M815.78,887.87l-2.11-7.52c-9.63,6.34-19.49,9.16-30.77,9.16-21.84,0-34.76-14.56-34.76-36.17v-58.95c0-22.07,12.92-35.7,34.76-35.7,11.51,0,21.14,2.11,30.53,6.34v-46.27h31.94v169.1h-29.59ZM813.43,854.99v-61.53c-7.28-4.23-12.68-5.64-20.2-5.64-8.22,0-13.15,4.93-13.15,15.74v40.16c0,10.8,4.47,16.68,13.15,16.68,7.05,0,13.62-1.88,20.2-5.4Z"/>
    <path class="cls-1" d="M870.48,745.55v-33.82h34.05v33.82h-34.05ZM871.42,887.87v-126.82h31.94v126.82h-31.94Z"/>
    <path class="cls-1" d="M958.55,768.56c11.51-5.64,23.01-9.86,35-9.86,20.9,0,30.77,12.45,30.77,33.12v96.06h-31.94v-86.66c0-9.16-4.23-13.39-11.98-13.39-6.34,0-12.68,2.82-19.02,6.11v93.94h-31.94v-127.76h26.77l2.35,8.46Z"/>
    <path class="cls-1" d="M1048.24,794.4c0-22.07,12.92-35.7,34.76-35.7,12.21,0,22.31,2.35,32.17,7.04l1.41-5.63h26.77v122.13c0,37.34-20.2,50.26-60.12,50.26-10.8,0-23.25-1.18-33.35-3.05v-27.24c5.63,1.41,20.43,3.05,29.83,3.05,20.43,0,31.71-7.28,31.71-24.66v-1.18c-8.92,5.4-18.08,7.75-28.42,7.75-21.84,0-34.76-14.56-34.76-36.17v-56.6ZM1111.42,853.82v-61.53c-6.34-3.29-11.27-4.46-18.08-4.46-8.22,0-13.15,4.93-13.15,15.74v37.81c0,10.8,4.47,16.68,13.15,16.68,6.34,0,12.21-1.41,18.08-4.23Z"/>
  </g>
</svg>