<?xml version="1.0" encoding="UTF-8"?>
<svg id="Layer_1" data-name="Layer 1"
  xmlns="http://www.w3.org/2000/svg" version="1.1" viewBox="0 0 470 160">
  <defs>
    <style>
      .cls-1 {
        fill: currentColor;
        stroke-width: 0px;
      }
    </style>
  </defs>
  <path class="cls-1" d="M125.9,106v-58.8l-3.2-4.8v-19.7L101.2,1.1,15.6,36.2v13.3l-5.1,6.3v88.5l-5.3,8.8v4.8h44.5v-33.5l-2.4-3.7,5.2-5.2v-12.6s8.4-24.3,33.9-17v20.2c-.1,0-5,7.3-5,7.3v31.6c.1,0-4.5,8.8-4.5,8.8v4.1h53.5v-44.4l-4.5-7.5h0ZM86.4,76.1c-34.5-9.8-41.1,22.1-41.1,22.1h-8.3c.2-1.1-.6-42.8,49.4-41.3v19.2h0Z"/>
  <g>
    <path class="cls-1" d="M149.8,103.6v-53.3h14.6c12.8,0,17.6,5.4,17.6,14.5v6.6c0,5.5-2.1,9.5-7.4,11.6l12.2,20.6h-11.7l-10.7-19h-4.3v19h-10.4,0ZM160.3,58.9v17.1h4.4c4.5,0,7-2,7-6.3v-4.3c0-4.4-2.4-6.5-6.8-6.5h-4.6Z"/>
    <path class="cls-1" d="M204.9,95.8c3.4,0,5.4-1.5,5.4-4.8v-.7h10.1v2.5c0,7.3-5.8,11.5-15.5,11.5s-15.4-4.2-15.4-11.5v-18.3c0-7.3,5.7-11.5,15.4-11.5s15.5,4.2,15.5,11.5v13h-20.8v3.5c0,3.3,1.8,4.8,5.3,4.8h0ZM199.6,79.6h10.7v-3.3c0-3.3-2-4.8-5.4-4.8s-5.3,1.5-5.3,4.8v3.3h0Z"/>
    <path class="cls-1" d="M227.6,103.9v-53.6h10.1v15.8c4.1-2.3,6.9-3.3,10.1-3.3,7.1,0,10.9,4.2,10.9,11.2v18.4c0,7-3.8,11.5-11.2,11.5s-6.7-1-9.8-3.2h0c0,0-.7,3-.7,3h-9.3ZM237.6,74.6v18.2c2.2,1.4,4.3,2.1,6.5,2.1s4.4-1.6,4.4-5.3v-12.6c0-3.5-1.4-5-4.1-5s-3.5.7-6.9,2.5h0Z"/>
    <path class="cls-1" d="M287.9,103.6l-.6-2.7c-3.7,2-7.7,3.4-11.5,3.4-6.6,0-9.8-4-9.8-10.6v-30.1h10.1v27.1c0,3,1.4,4.4,3.8,4.4s4.1-1,6.3-2.1v-29.4h10.1v39.9h-8.4,0Z"/>
    <path class="cls-1" d="M304.2,58.8v-10.7h10.7v10.7h-10.7ZM304.5,103.6v-39.9h10.1v39.9h-10.1Z"/>
    <path class="cls-1" d="M332.7,50.3v39.8c0,3.5,1,5.3,3.4,5.3s2.1-.1,2.8-.4v8.4c-1.3.4-2.6.6-6.6.6-6.5,0-9.7-3.4-9.7-12.1v-41.5h10.1Z"/>
    <path class="cls-1" d="M363.7,103.6l-.7-2.4c-3,2-6.1,2.9-9.7,2.9-6.9,0-10.9-4.6-10.9-11.4v-18.6c0-7,4.1-11.2,10.9-11.2s6.7.7,9.6,2v-14.6h10.1v53.3h-9.3ZM363,93.2v-19.4c-2.3-1.3-4-1.8-6.4-1.8s-4.1,1.6-4.1,5v12.6c0,3.4,1.4,5.3,4.1,5.3s4.3-.6,6.4-1.7h0Z"/>
    <path class="cls-1" d="M380.9,58.8v-10.7h10.7v10.7h-10.7ZM381.2,103.6v-39.9h10.1v39.9h-10.1Z"/>
    <path class="cls-1" d="M408.7,66c3.6-1.8,7.2-3.1,11-3.1,6.6,0,9.7,3.9,9.7,10.4v30.3h-10.1v-27.3c0-2.9-1.3-4.2-3.8-4.2s-4,.9-6,1.9v29.6h-10.1v-40.2h8.4l.7,2.7h0Z"/>
    <path class="cls-1" d="M436.9,74.2c0-7,4.1-11.2,10.9-11.2s7,.7,10.1,2.2l.4-1.8h8.4v38.5c0,11.8-6.4,15.8-18.9,15.8s-7.3-.4-10.5-1v-8.6c1.8.4,6.4,1,9.4,1,6.4,0,10-2.3,10-7.8v-.4c-2.8,1.7-5.7,2.4-9,2.4-6.9,0-10.9-4.6-10.9-11.4v-17.8h0ZM456.8,92.9v-19.4c-2-1-3.5-1.4-5.7-1.4s-4.1,1.6-4.1,5v11.9c0,3.4,1.4,5.3,4.1,5.3s3.8-.4,5.7-1.3h0Z"/>
  </g>
</svg>